{
.appVersion = "3151";
.formatVersion = 3;
customParameters = (
{
name = vendorID;
value = GOOG;
},
{
name = panose;
value = (
2,
2,
4,
0,
0,
0,
0,
0,
0,
0
);
},
{
name = unicodeRanges;
value = (
0,
1,
7,
29,
36,
42,
43,
44,
45,
48,
49,
50,
51,
52,
54,
55,
57,
59,
61,
65,
66,
68
);
},
{
name = codePageRanges;
value = (
"1252",
"1250",
"1251",
"1258",
"932",
"936",
"bit 29",
"bit 30"
);
},
{
name = fsType;
value = (
);
},
{
name = ROS;
value = "Adobe-Identity-0";
}
);
date = "2017-05-01 11:06:58 +0000";
familyName = "Yaku Han MP";
featurePrefixes = (
{
automatic = 1;
code = "languagesystem DFLT dflt;
";
name = Languagesystems;
}
);
features = (
{
automatic = 1;
code = "feature vert;
feature vrt2;
";
tag = aalt;
},
{
code = "sub comma-han by comma-han.vert;
sub period-han by period-han.vert;
sub colon.full by colon.full.vert;
sub blacklenticularbracketleft by blacklenticularbracketleft.vert;
sub blacklenticularbracketright by blacklenticularbracketright.vert;
sub cornerbracketleft by cornerbracketleft.vert;
sub cornerbracketright by cornerbracketright.vert;
sub dblanglebracketleft by dblanglebracketleft.vert;
sub dblanglebracketright by dblanglebracketright.vert;
sub tortoiseshellbracketleft by tortoiseshellbracketleft.vert;
sub tortoiseshellbracketright by tortoiseshellbracketright.vert;
sub whitecornerbracketleft by whitecornerbracketleft.vert;
sub whitecornerbracketright by whitecornerbracketright.vert;
sub whitelenticularbracketleft by whitelenticularbracketleft.vert;
sub whitelenticularbracketright by whitelenticularbracketright.vert;
sub braceleft.full by braceleft.full.vert;
sub braceright.full by braceright.full.vert;
sub bracketleft.full by bracketleft.full.vert;
sub bracketright.full by bracketright.full.vert;
sub parenleft.full by parenleft.full.vert;
sub parenright.full by parenright.full.vert;
sub angleLeft by anglebracketleft.vert;
sub angleRight by anglebracketright.vert;";
tag = vert;
},
{
automatic = 1;
code = "sub comma-han by comma-han.vert;

glyphs = (
{
glyphname = .notdef;
layers = (
{
hints = (
{
horizontal = 1;
place = (-120, 50);
place = (-120, 50);
type = Stem;
},
{
horizontal = 1;
place = (830, 50);
place = (830, 50);
type = Stem;
},
{
place = (100, 50);
place = (100, 50);
type = Stem;
},
{
place = (850, 50);
place = (850, 50);
type = Stem;
},
{
horizontal = 1;
place = (789, 91);
place = (789, 91);
type = Stem;
}
);
layerId = m01;
shapes = (
{
closed = 1;
nodes = (
(100,-120,l),
(900,-120,l),
(900,880,l),
(100,880,l)
);
},
{
closed = 1;
nodes = (
(500,421,l),
(182,830,l),
(818,830,l)
);
},
{
closed = 1;
nodes = (
(532,380,l),
(850,789,l),
(850,-29,l)
);
},
{
closed = 1;
nodes = (
(182,-70,l),
(500,339,l),
(818,-70,l)
);
},
{
closed = 1;
nodes = (
(150,789,l),
(468,380,l),
(150,-29,l)
);
}
);
vertWidth = 1000;
width = 1000;
}
);
note = ".notdef";
},
{
glyphname = "comma-han";
kernLeft = "comma-han";
lastChange = "2023-08-28 01:12:46 +0000";
layers = (
{
hints = (
{
horizontal = 1;
place = (-76, 249);
place = (-76, 249);
type = Stem;
},
{
place = (39, 251);
place = (39, 251);
type = Stem;
}
);
layerId = m01;
shapes = (
{
closed = 1;
nodes = (
(39,156,l),
(128,93,o),
(169,32,o),
(201,-34,cs),
(215,-64,o),
(228,-76,o),
(249,-76,cs),
(273,-76,o),
(290,-60,o),
(290,-31,cs),
(290,-9,o),
(284,10,o),
(266,36,cs),
(233,84,o),
(170,135,o),
(50,173,c)
);
}
);
vertWidth = 1000;
width = 490;
}
);
note = cid01397;
unicode = 12289;
},
{
glyphname = "comma-han.vert";
kernBottom = comma.full.vert;
lastChange = "2023-08-28 01:13:47 +0000";
layers = (
{
hints = (
{
horizontal = 1;
place = (588, 245);
place = (588, 245);
type = Stem;
},
{
place = (689, 248);
place = (689, 248);
type = Stem;
}
);
layerId = m01;
shapes = (
{
closed = 1;
nodes = (
(689,816,l),
(777,755,o),
(818,695,o),
(848,630,cs),
(862,601,o),
(875,588,o),
(896,588,cs),
(920,588,o),
(937,605,o),
(937,634,cs),
(937,655,o),
(931,674,o),
(914,700,cs),
(880,747,o),
(819,797,o),
(701,833,c)
);
}
);
vertWidth = 492;
width = 1000;
}
);
note = cid59877;
unicode = 65041;
},
{
glyphname = "period-han";
kernLeft = "comma-han";
lastChange = "2023-08-28 01:12:50 +0000";
layers = (
{
hints = (
{
horizontal = 1;
place = (-82, 34);
place = (-82, 34);
type = Stem;
},
{
horizontal = 1;
place = (165, 34);
place = (165, 34);
type = Stem;
},
{
place = (42, 34);
place = (42, 34);
type = Stem;
},
{
place = (289, 34);
place = (289, 34);
type = Stem;
}
);
layerId = m01;
shapes = (
{
closed = 1;
nodes = (
(260,-82,o),
(323,-18,o),
(323,59,cs),
(323,136,o),
(260,199,o),
(183,199,cs),
(106,199,o),
(42,136,o),
(42,59,cs),
(42,-18,o),
(106,-82,o),
(183,-82,cs)
);
},
{
closed = 1;
nodes = (
(242,165,o),
(289,118,o),
(289,59,cs),
(289,0,o),
(242,-48,o),
(183,-48,cs),
(123,-48,o),
(76,0,o),
(76,59,cs),
(76,118,o),
(123,165,o),
(183,165,cs)
);
}
);
vertWidth = 1000;
width = 723;
}
);
note = cid01398;
unicode = 12290;
},
{
glyphname = "period-han.vert";
kernBottom = comma.full.vert;
lastChange = "2023-08-28 01:13:54 +0000";
layers = (
{
hints = (
{
horizontal = 1;
place = (541, 33);
place = (541, 33);
type = Stem;
},
{
horizontal = 1;
place = (783, 33);
place = (783, 33);
type = Stem;
},
{
place = (678, 34);
place = (678, 34);
type = Stem;
},
{
place = (920, 34);
place = (920, 34);
type = Stem;
}
);
layerId = m01;
shapes = (
{
closed = 1;
nodes = (
(892,541,o),
(954,604,o),
(954,679,cs),
(954,755,o),
(892,816,o),
(817,816,cs),
(741,816,o),
(678,755,o),
(678,679,cs),
(678,604,o),
(741,541,o),
(817,541,cs)
);
},
{
closed = 1;
nodes = (
(874,783,o),
(920,737,o),
(920,679,cs),
(920,621,o),
(874,574,o),
(817,574,cs),
(758,574,o),
(712,621,o),
(712,679,cs),
(712,737,o),
(758,783,o),
(817,783,cs)
);
}
);
vertWidth = 739;
width = 1000;
}
);
note = cid59878;
unicode = 65042;
},
{
glyphname = "dot-kata";
lastChange = "2023-08-28 01:12:57 +0000";
layers = (
{
hints = (
{
horizontal = 1;
place = (288, 184);
place = (288, 184);
type = Stem;
},
{
place = (408, 184);
place = (408, 184);
type = Stem;
}
);
layerId = m01;
shapes = (
{
closed = 1;
nodes = (
(334,431,o),
(293,472,o),
(242,472,cs),
(191,472,o),
(150,431,o),
(150,380,cs),
(150,329,o),
(191,288,o),
(242,288,cs),
(293,288,o),
(334,329,o),
(334,380,cs)
);
}
);
vertWidth = 1000;
width = 484;
}
);
note = cid01644;
unicode = 12539;
},
{
glyphname = hyphenationpoint;
lastChange = "2023-08-28 01:12:57 +0000";
layers = (
{
hints = (
{
horizontal = 1;
place = (322, 116);
place = (322, 116);
type = Stem;
},
{
place = (442, 116);
place = (442, 116);
type = Stem;
}
);
layerId = m01;
shapes = (
{
closed = 1;
nodes = (
(150,347,o),
(175,322,o),
(208,322,cs),
(241,322,o),
(266,347,o),
(266,380,cs),
(266,413,o),
(241,438,o),
(208,438,cs),
(175,438,o),
(150,413,o),
(150,380,cs)
);
}
);
vertWidth = 1000;
width = 416;
}
);
note = cid00729;
unicode = 8231;
},
{
glyphname = colon.full;
lastChange = "2023-08-28 01:12:57 +0000";
layers = (
{
hints = (
{
horizontal = 1;
place = (35, 133);
place = (35, 133);
type = Stem;
},
{
horizontal = 1;
place = (523, 132);
place = (523, 132);
type = Stem;
},
{
place = (434, 132);
place = (434, 132);
type = Stem;
}
);
layerId = m01;
shapes = (
{
closed = 1;
nodes = (
(150,64,o),
(179,35,o),
(216,35,cs),
(253,35,o),
(282,64,o),
(282,101,cs),
(282,138,o),
(253,168,o),
(216,168,cs),
(179,168,o),
(150,138,o),
(150,101,cs)
);
},
{
closed = 1;
nodes = (
(150,552,o),
(179,523,o),
(216,523,cs),
(253,523,o),
(282,552,o),
(282,589,cs),
(282,626,o),
(253,655,o),
(216,655,cs),
(179,655,o),
(150,626,o),
(150,589,cs)
);
}
);
vertWidth = 1000;
width = 432;
}
);
note = cid59969;
unicode = 65306;
},
{
glyphname = exclam.full;
lastChange = "2023-08-28 01:12:57 +0000";
layers = (
{
hints = (
{
horizontal = 1;
place = (-12, 124);
place = (-12, 124);
type = Stem;
},
{
place = (437, 126);
place = (437, 126);
type = Stem;
},
{
place = (476.5, 47);
place = (476.5, 47);
type = Stem;
}
);
layerId = m01;
shapes = (
{
closed = 1;
nodes = (
(250,-12,o),
(276,16,o),
(276,50,cs),
(276,84,o),
(250,112,o),
(213,112,cs),
(176,112,o),
(150,84,o),
(150,50,cs),
(150,16,o),
(176,-12,o),
(213,-12,cs)
);
},
{
closed = 1;
nodes = (
(178,765,o),
(158,745,o),
(158,697,cs),
(158,642,o),
(166,553,o),
(183,373,cs),
(196,211,l),
(230,211,l),
(243,373,ls),
(260,552,o),
(268,642,o),
(268,698,cs),
(268,745,o),
(248,765,o),
(213,765,cs)
);
}
);
vertWidth = 1000;
width = 426;
}
);
note = cid59944;
unicode = 65281;
},
{
glyphname = question.full;
lastChange = "2023-08-28 01:12:57 +0000";
layers = (
{
hints = (
{
horizontal = 1;
place = (-12, 121);
place = (-12, 121);
type = Stem;
},
{
horizontal = 1;
place = (727, 38);
place = (727, 38);
type = Stem;
},
{
place = (393, 122);
place = (393, 122);
type = Stem;
},
{
place = (632, 82);
place = (632, 82);
type = Stem;
},
{
place = (428, 44.5);
place = (428, 44.5);
type = Stem;
}
);
layerId = m01;
shapes = (
{
closed = 1;
nodes = (
(321,109,o),
(296,82,o),
(296,48,cs),
(296,15,o),
(321,-12,o),
(357,-12,cs),
(393,-12,o),
(418,15,o),
(418,48,cs),
(418,82,o),
(393,109,o),
(357,109,cs)
);
},
{
closed = 1;
nodes = (
(281,709,l),
(316,723,o),
(338,727,o),
(375,727,cs),
(469,727,o),
(535,688,o),
(535,596,cs),
(535,531,o),
(502,488,o),
(426,432,cs),
(353,377,o),
(331,349,o),
(331,304,cs),
(331,274,o),
(333,241,o),
(338,204,c),
(373,204,l),
(378,276,ls),
(381,327,o),
(401,347,o),
(477,396,cs),
(576,459,o),
(617,517,o),
(617,594,cs),
(617,692,o),
(544,765,o),
(392,765,cs),
(261,765,o),
(163,697,o),
(150,589,c),
(160,568,o),
(176,561,o),
(194,561,cs),
(224,561,o),
(242,580,o),
(255,626,cs)
);
}
);
vertWidth = 1000;
width = 767;
}
);
note = cid59974;
unicode = 65311;
},
{
glyphname = semicolon.full;
lastChange = "2023-08-28 01:12:57 +0000";
layers = (
{
hints = (
{
horizontal = 1;
place = (523, 132);
place = (523, 132);
type = Stem;
},
{
place = (517, 50);
place = (517, 50);
type = Stem;
},
{
place = (433, 133);
place = (433, 133);
type = Stem;
}
);
layerId = m01;
shapes = (
{
closed = 1;
nodes = (
(165,-88,l),
(266,-43,o),
(299,52,o),
(299,125,cs),
(299,176,o),
(272,214,o),
(227,214,cs),
(186,214,o),
(164,186,o),
(164,155,cs),
(164,104,o),
(212,88,o),
(249,75,c),
(246,35,o),
(224,-26,o),
(150,-63,c)
);
},
{
closed = 1;
nodes = (
(165,552,o),
(194,523,o),
(232,523,cs),
(268,523,o),
(298,552,o),
(298,589,cs),
(298,626,o),
(268,655,o),
(232,655,cs),
(194,655,o),
(165,626,o),
(165,589,cs)
);
}
);
vertWidth = 1000;
width = 449;
}
);
note = cid59970;
unicode = 65307;
},
{
glyphname = colon.full.vert;
lastChange = "2023-08-28 01:14:01 +0000";
layers = (
{
hints = (
{
horizontal = 1;
place = (314, 133);
place = (314, 133);
type = Stem;
},
{
place = (191, 132);
place = (191, 132);
type = Stem;
},
{
place = (679, 132);
place = (679, 132);
type = Stem;
}
);
layerId = m01;
shapes = (
{
closed = 1;
nodes = (
(679,626,o),
(708,597,o),
(746,597,cs),
(782,597,o),
(811,626,o),
(811,664,cs),
(811,700,o),
(782,730,o),
(746,730,cs),
(708,730,o),
(679,700,o),
(679,664,cs)
);
},
{
closed = 1;
nodes = (
(191,626,o),
(220,597,o),
(257,597,cs),
(294,597,o),
(323,626,o),
(323,664,cs),
(323,700,o),
(294,730,o),
(257,730,cs),
(220,730,o),
(191,700,o),
(191,664,cs)
);
}
);
vertWidth = 433;
width = 1000;
}
);
note = cid64716;
},
{
glyphname = angleLeft;
lastChange = "2023-08-28 01:13:10 +0000";
layers = (
{
hints = (
{
horizontal = 1;
place = (-90, 940);
place = (-90, 940);
type = Stem;
},
{
place = (532, 431);
place = (532, 431);
type = Stem;
}
);
layerId = m01;
shapes = (
{
closed = 1;
nodes = (
(631,824,l),
(601,850,l),
(200,380,l),
(601,-90,l),
(631,-64,l),
(253,380,l)
);
}
);
vertWidth = 1000;
width = 668;
}
);
note = cid01404;
unicode = (9001,12296);
},
{
glyphname = angleRight;
lastChange = "2023-08-28 01:13:21 +0000";
layers = (
{
hints = (
{
horizontal = 1;
place = (-90, 940);
place = (-90, 940);
type = Stem;
},
{
place = (37, 431);
place = (37, 431);
type = Stem;
}
);
layerId = m01;
shapes = (
{
closed = 1;
nodes = (
(37,-64,l),
(67,-90,l),
(468,380,l),
(67,850,l),
(37,824,l),
(415,380,l)
);
}
);
vertWidth = 1000;
width = 668;
}
);
note = cid01405;
unicode = (9002,12297);
},
{
glyphname = blacklenticularbracketleft;
lastChange = "2023-08-28 01:13:10 +0000";
layers = (
{
hints = (
{
horizontal = 1;
place = (-83, 17);
place = (-83, 17);
type = Stem;
},
{
horizontal = 1;
place = (826, 17);
place = (826, 17);
type = Stem;
},
{
place = (620, 80);
place = (620, 80);
type = Stem;
}
);
layerId = m01;
shapes = (
{
closed = 1;
nodes = (
(543,-66,l),
(385,5,o),
(280,160,o),
(280,380,cs),
(280,600,o),
(385,755,o),
(543,826,c),
(543,843,l),
(200,843,l),
(200,-83,l),
(543,-83,l)
);
}
);
vertWidth = 1000;
width = 580;
}
);
note = cid01412;
unicode = 12304;
},
{
glyphname = blacklenticularbracketright;
lastChange = "2023-08-28 01:13:21 +0000";
layers = (
{
hints = (
{
horizontal = 1;
place = (-83, 17);
place = (-83, 17);
type = Stem;
},
{
horizontal = 1;
place = (826, 17);
place = (826, 17);
type = Stem;
},
{
place = (300, 80);
place = (300, 80);
type = Stem;
}
);
layerId = m01;
shapes = (
{
closed = 1;
nodes = (
(37,-83,l),
(380,-83,l),
(380,843,l),
(37,843,l),
(37,826,l),
(195,755,o),
(300,600,o),
(300,380,cs),
(300,160,o),
(195,5,o),
(37,-66,c)
);
}
);
vertWidth = 1000;
width = 580;
}
);
note = cid01413;
unicode = 12305;
},
{
glyphname = braceleft.full;
lastChange = "2023-08-28 01:13:10 +0000";
layers = (
{
hints = (
{
horizontal = 1;
place = (-108, 43);
place = (-108, 43);
type = Stem;
},
{
horizontal = 1;
place = (826, 42);
place = (826, 42);
type = Stem;
},
{
place = (710, 70);
place = (710, 70);
type = Stem;
},
{
place = (736, 53);
place = (736, 53);
type = Stem;
}
);
layerId = m01;
shapes = (
{
closed = 1;
nodes = (
(590,827,l),
(590,868,l),
(538,868,ls),
(396,868,o),
(328,818,o),
(328,727,cs),
(328,642,o),
(354,559,o),
(354,502,cs),
(354,448,o),
(318,416,o),
(200,400,c),
(200,361,l),
(318,345,o),
(354,312,o),
(354,259,cs),
(354,202,o),
(328,118,o),
(328,34,cs),
(328,-58,o),
(396,-108,o),
(538,-108,cs),
(590,-108,l),
(590,-67,l),
(537,-63,ls),
(431,-57,o),
(398,-26,o),
(398,42,cs),
(398,119,o),
(407,186,o),
(407,248,cs),
(407,308,o),
(374,361,o),
(287,380,c),
(374,400,o),
(407,453,o),
(407,513,cs),
(407,574,o),
(398,641,o),
(398,719,cs),
(398,787,o),
(431,820,o),
(537,825,cs)
);
}
);
vertWidth = 1000;
width = 618;
}
);
note = cid60034;
unicode = 65371;
},
{
glyphname = braceright.full;
lastChange = "2023-08-28 01:13:21 +0000";
layers = (
{
hints = (
{
horizontal = 1;
place = (-107, 42);
place = (-107, 42);
type = Stem;
},
{
horizontal = 1;
place = (826, 43);
place = (826, 43);
type = Stem;
},
{
place = (220, 70);
place = (220, 70);
type = Stem;
},
{
place = (211, 53);
place = (211, 53);
type = Stem;
}
);
layerId = m01;
shapes = (
{
closed = 1;
nodes = (
(418,400,l),
(300,416,o),
(264,449,o),
(264,502,cs),
(264,559,o),
(290,643,o),
(290,727,cs),
(290,819,o),
(222,869,o),
(80,869,cs),
(28,869,l),
(28,828,l),
(81,824,ls),
(187,818,o),
(220,787,o),
(220,719,cs),
(220,642,o),
(211,575,o),
(211,513,cs),
(211,453,o),
(244,400,o),
(331,381,c),
(244,361,o),
(211,308,o),
(211,248,cs),
(211,187,o),
(220,120,o),
(220,42,cs),
(220,-26,o),
(187,-59,o),
(81,-64,cs),
(28,-66,l),
(28,-107,l),
(80,-107,ls),
(222,-107,o),
(290,-57,o),
(290,34,cs),
(290,119,o),
(264,202,o),
(264,259,cs),
(264,313,o),
(300,345,o),
(418,361,c)
);
}
);
vertWidth = 1000;
width = 618;
}
);
note = cid60036;
unicode = 65373;
},
{
glyphname = cornerbracketleft;
lastChange = "2023-08-28 01:13:10 +0000";
layers = (
{
hints = (
{
horizontal = 1;
place = (808, 35);
place = (808, 35);
type = Stem;
},
{
place = (657, 37);
place = (657, 37);
type = Stem;
}
);
layerId = m01;
shapes = (
{
closed = 1;
nodes = (
(200,193,l),
(237,193,l),
(237,808,l),
(506,808,l),
(506,843,l),
(200,843,l)
);
}
);
vertWidth = 1000;
width = 543;
}
);
note = cid01408;
unicode = 12300;
},
{
glyphname = cornerbracketright;
lastChange = "2023-08-28 01:13:21 +0000";
layers = (
{
hints = (
{
horizontal = 1;
place = (-83, 35);
place = (-83, 35);
type = Stem;
},
{
place = (306, 37);
place = (306, 37);
type = Stem;
}
);
layerId = m01;
shapes = (
{
closed = 1;
nodes = (
(343,567,l),
(306,567,l),
(306,-48,l),
(37,-48,l),
(37,-83,l),
(343,-83,l)
);
}
);
vertWidth = 1000;
width = 543;
}
);
note = cid01409;
unicode = 12301;
},
{
glyphname = dblanglebracketleft;
lastChange = "2023-08-28 01:13:10 +0000";
layers = (
{
hints = (
{
horizontal = 1;
place = (-86, 932);
place = (-86, 932);
type = Stem;
},
{
place = (523, 439);
place = (523, 439);
type = Stem;
}
);
layerId = m01;
shapes = (
{
closed = 1;
nodes = (
(240,380,l),
(496,828,l),
(467,846,l),
(200,380,l),
(467,-86,l),
(496,-68,l)
);
},
{
closed = 1;
nodes = (
(382,380,l),
(639,828,l),
(610,846,l),
(342,380,l),
(610,-86,l),
(639,-68,l)
);
}
);
vertWidth = 1000;
width = 677;
}
);
note = cid01406;
unicode = 12298;
},
{
glyphname = dblanglebracketright;
lastChange = "2023-08-28 01:13:21 +0000";
layers = (
{
hints = (
{
horizontal = 1;
place = (-86, 932);
place = (-86, 932);
type = Stem;
},
{
place = (38, 439);
place = (38, 439);
type = Stem;
}
);
layerId = m01;
shapes = (
{
closed = 1;
nodes = (
(210,-86,l),
(477,380,l),
(210,846,l),
(181,828,l),
(437,380,l),
(181,-68,l)
);
},
{
closed = 1;
nodes = (
(67,-86,l),
(335,380,l),
(67,846,l),
(38,828,l),
(295,380,l),
(38,-68,l)
);
}
);
vertWidth = 1000;
width = 677;
}
);
note = cid01407;
unicode = 12299;
},
{
glyphname = tortoiseshellbracketleft;
lastChange = "2023-08-28 01:13:10 +0000";
layers = (
{
hints = (
{
horizontal = 1;
place = (-88, 936);
place = (-88, 936);
type = Stem;
},
{
place = (713, 38);
place = (713, 38);
type = Stem;
}
);
layerId = m01;
shapes = (
{
closed = 1;
nodes = (
(433,-88,l),
(449,-56,l),
(238,43,l),
(238,717,l),
(449,816,l),
(433,848,l),
(200,739,l),
(200,21,l)
);
}
);
vertWidth = 1000;
width = 487;
}
);
note = cid01416;
unicode = 12308;
},
{
glyphname = tortoiseshellbracketright;
lastChange = "2023-08-28 01:13:21 +0000";
layers = (
{
hints = (
{
horizontal = 1;
place = (-88, 936);
place = (-88, 936);
type = Stem;
},
{
place = (249, 38);
place = (249, 38);
type = Stem;
}
);
layerId = m01;
shapes = (
{
closed = 1;
nodes = (
(54,-88,l),
(287,21,l),
(287,739,l),
(54,848,l),
(38,816,l),
(249,716,l),
(249,44,l),
(38,-56,l)
);
}
);
vertWidth = 1000;
width = 487;
}
);
note = cid01417;
unicode = 12309;
},
{
glyphname = whitecornerbracketleft;
lastChange = "2023-08-28 01:13:10 +0000";
layers = (
{
hints = (
{
horizontal = 1;
place = (185, 28);
place = (185, 28);
type = Stem;
},
{
horizontal = 1;
place = (698, 28);
place = (698, 28);
type = Stem;
},
{
horizontal = 1;
place = (816, 28);
place = (816, 28);
type = Stem;
},
{
place = (605, 28);
place = (605, 28);
type = Stem;
},
{
place = (727, 28);
place = (727, 28);
type = Stem;
},
{
place = (935, 28);
place = (935, 28);
type = Stem;
}
);
layerId = m01;
shapes = (
{
closed = 1;
nodes = (
(558,698,l),
(558,844,l),
(200,844,l),
(200,185,l),
(350,185,l),
(350,698,l)
);
},
{
closed = 1;
nodes = (
(530,816,l),
(530,726,l),
(322,726,l),
(322,213,l),
(228,213,l),
(228,816,l)
);
}
);
vertWidth = 1000;
width = 595;
}
);
note = cid01410;
unicode = 12302;
},
{
glyphname = whitecornerbracketright;
lastChange = "2023-08-28 01:13:21 +0000";
layers = (
{
hints = (
{
horizontal = 1;
place = (-83, 28);
place = (-83, 28);
type = Stem;
},
{
horizontal = 1;
place = (35, 28);
place = (35, 28);
type = Stem;
},
{
horizontal = 1;
place = (547, 28);
place = (547, 28);
type = Stem;
},
{
place = (37, 28);
place = (37, 28);
type = Stem;
},
{
place = (245, 28);
place = (245, 28);
type = Stem;
},
{
place = (367, 28);
place = (367, 28);
type = Stem;
}
);
layerId = m01;
shapes = (
{
closed = 1;
nodes = (
(37,63,l),
(37,-83,l),
(395,-83,l),
(395,575,l),
(245,575,l),
(245,63,l)
);
},
{
closed = 1;
nodes = (
(65,-55,l),
(65,35,l),
(273,35,l),
(273,547,l),
(367,547,l),
(367,-55,l)
);
}
);
vertWidth = 1000;
width = 595;
}
);
note = cid01411;
unicode = 12303;
},
{
glyphname = whitelenticularbracketleft;
lastChange = "2023-08-28 01:13:10 +0000";
layers = (
{
hints = (
{
horizontal = 1;
place = (-83, 28);
place = (-83, 28);
type = Stem;
},
{
horizontal = 1;
place = (815, 28);
place = (815, 28);
type = Stem;
},
{
place = (612, 28);
place = (612, 28);
type = Stem;
},
{
place = (675, 28);
place = (675, 28);
type = Stem;
},
{
horizontal = 1;
place = (822, 21);
place = (822, 21);
type = Stem;
}
);
layerId = m01;
shapes = (
{
closed = 1;
nodes = (
(551,-62,l),
(400,3,o),
(291,160,o),
(291,380,cs),
(291,600,o),
(400,757,o),
(551,822,c),
(551,843,l),
(200,843,l),
(200,-83,l),
(551,-83,l)
);
},
{
closed = 1;
nodes = (
(228,-55,l),
(228,815,l),
(480,815,l),
(393,762,o),
(263,630,o),
(263,380,cs),
(263,130,o),
(393,-2,o),
(480,-55,c)
);
}
);
vertWidth = 1000;
width = 588;
}
);
note = cid01418;
unicode = 12310;
},
{
glyphname = whitelenticularbracketright;
lastChange = "2023-08-28 01:13:21 +0000";
layers = (
{
hints = (
{
horizontal = 1;
place = (-83, 28);
place = (-83, 28);
type = Stem;
},
{
horizontal = 1;
place = (815, 28);
place = (815, 28);
type = Stem;
},
{
place = (298, 28);
place = (298, 28);
type = Stem;
},
{
place = (360, 28);
place = (360, 28);
type = Stem;
},
{
horizontal = 1;
place = (822, 21);
place = (822, 21);
type = Stem;
}
);
layerId = m01;
shapes = (
{
closed = 1;
nodes = (
(388,-83,l),
(388,843,l),
(37,843,l),
(37,822,l),
(188,757,o),
(298,600,o),
(298,380,cs),
(298,160,o),
(188,3,o),
(37,-62,c),
(37,-83,l)
);
},
{
closed = 1;
nodes = (
(326,630,o),
(195,762,o),
(108,815,c),
(360,815,l),
(360,-55,l),
(108,-55,l),
(195,-2,o),
(326,130,o),
(326,380,cs)
);
}
);
vertWidth = 1000;
width = 588;
}
);
note = cid01419;
unicode = 12311;
},
{
glyphname = anglebracketleft.vert;
lastChange = "2023-08-28 01:14:09 +0000";
layers = (
{
hints = (
{
horizontal = 1;
place = (-83, 431);
place = (-83, 431);
type = Stem;
},
{
place = (30, 940);
place = (30, 940);
type = Stem;
}
);
layerId = m01;
shapes = (
{
closed = 1;
nodes = (
(944,249,l),
(970,279,l),
(500,680,l),
(30,279,l),
(56,249,l),
(500,627,l)
);
}
);
vertWidth = 668;
width = 1000;
}
);
note = cid59901;
unicode = 65087;
},
{
glyphname = anglebracketright.vert;
lastChange = "2023-08-28 01:14:14 +0000";
layers = (
{
hints = (
{
horizontal = 1;
place = (412, 431);
place = (412, 431);
type = Stem;
},
{
place = (30, 940);
place = (30, 940);
type = Stem;
}
);
layerId = m01;
shapes = (
{
closed = 1;
nodes = (
(56,843,l),
(30,813,l),
(500,412,l),
(970,813,l),
(944,843,l),
(500,465,l)
);
}
);
vertWidth = 668;
width = 1000;
}
);
note = cid59902;
unicode = 65088;
},
{
glyphname = blacklenticularbracketleft.vert;
lastChange = "2023-08-28 01:14:20 +0000";
layers = (
{
hints = (
{
horizontal = 1;
place = (180, 80);
place = (180, 80);
type = Stem;
},
{
place = (37, 17);
place = (37, 17);
type = Stem;
},
{
place = (946, 17);
place = (946, 17);
type = Stem;
}
);
layerId = m01;
shapes = (
{
closed = 1;
nodes = (
(54,337,l),
(125,495,o),
(280,600,o),
(500,600,cs),
(720,600,o),
(875,495,o),
(946,337,c),
(963,337,l),
(963,680,l),
(37,680,l),
(37,337,l)
);
}
);
vertWidth = 580;
width = 1000;
}
);
note = cid59897;
unicode = 65083;
},
{
glyphname = blacklenticularbracketright.vert;
lastChange = "2023-08-28 01:14:25 +0000";
layers = (
{
hints = (
{
horizontal = 1;
place = (500, 80);
place = (500, 80);
type = Stem;
},
{
place = (37, 17);
place = (37, 17);
type = Stem;
},
{
place = (946, 17);
place = (946, 17);
type = Stem;
}
);
layerId = m01;
shapes = (
{
closed = 1;
nodes = (
(946,843,l),
(875,685,o),
(720,580,o),
(500,580,cs),
(280,580,o),
(125,685,o),
(54,843,c),
(37,843,l),
(37,500,l),
(963,500,l),
(963,843,l)
);
}
);
vertWidth = 580;
width = 1000;
}
);
note = cid59898;
unicode = 65084;
},
{
glyphname = bracketleft.full;
lastChange = "2023-08-28 01:13:10 +0000";
layers = (
{
hints = (
{
horizontal = 1;
place = (-83, 35);
place = (-83, 35);
type = Stem;
},
{
horizontal = 1;
place = (808, 35);
place = (808, 35);
type = Stem;
},
{
place = (713, 38);
place = (713, 38);
type = Stem;
}
);
layerId = m01;
shapes = (
{
closed = 1;
nodes = (
(200,-83,l),
(450,-83,l),
(450,-48,l),
(238,-48,l),
(238,808,l),
(450,808,l),
(450,843,l),
(200,843,l)
);
}
);
vertWidth = 1000;
width = 487;
}
);
note = cid60002;
unicode = 65339;
},
{
glyphname = bracketright.full;
lastChange = "2023-08-28 01:13:21 +0000";
layers = (
{
hints = (
{
horizontal = 1;
place = (-83, 35);
place = (-83, 35);
type = Stem;
},
{
horizontal = 1;
place = (808, 35);
place = (808, 35);
type = Stem;
},
{
place = (249, 38);
place = (249, 38);
type = Stem;
}
);
layerId = m01;
shapes = (
{
closed = 1;
nodes = (
(287,-83,l),
(287,843,l),
(37,843,l),
(37,808,l),
(249,808,l),
(249,-48,l),
(37,-48,l),
(37,-83,l)
);
}
);
vertWidth = 1000;
width = 487;
}
);
note = cid60004;
unicode = 65341;
},
{
glyphname = cornerbracketleft.vert;
lastChange = "2023-08-28 01:14:31 +0000";
layers = (
{
hints = (
{
horizontal = 1;
place = (188, 35);
place = (188, 35);
type = Stem;
},
{
place = (938, 37);
place = (938, 37);
type = Stem;
}
);
layerId = m01;
shapes = (
{
closed = 1;
nodes = (
(262,680,l),
(262,645,l),
(938,645,l),
(938,374,l),
(975,374,l),
(975,680,l)
);
}
);
vertWidth = 543;
width = 1000;
}
);
note = cid59903;
unicode = 65089;
},
{
glyphname = cornerbracketright.vert;
lastChange = "2023-08-28 01:14:36 +0000";
layers = (
{
hints = (
{
horizontal = 1;
place = (533, 35);
place = (533, 35);
type = Stem;
},
{
place = (25, 37);
place = (25, 37);
type = Stem;
}
);
layerId = m01;
shapes = (
{
closed = 1;
nodes = (
(738,533,l),
(738,568,l),
(62,568,l),
(62,839,l),
(25,839,l),
(25,533,l)
);
}
);
vertWidth = 547;
width = 1000;
}
);
note = cid59904;
unicode = 65090;
},
{
glyphname = dblanglebracketleft.vert;
lastChange = "2023-08-28 01:14:42 +0000";
layers = (
{
hints = (
{
horizontal = 1;
place = (-82, 439);
place = (-82, 439);
type = Stem;
},
{
place = (34, 932);
place = (34, 932);
type = Stem;
}
);
layerId = m01;
shapes = (
{
closed = 1;
nodes = (
(500,640,l),
(948,384,l),
(966,413,l),
(500,680,l),
(34,413,l),
(52,384,l)
);
},
{
closed = 1;
nodes = (
(500,498,l),
(948,241,l),
(966,270,l),
(500,538,l),
(34,270,l),
(52,241,l)
);
}
);
vertWidth = 677;
width = 1000;
}
);
note = cid59899;
unicode = 65085;
},
{
glyphname = dblanglebracketright.vert;
lastChange = "2023-08-28 01:14:47 +0000";
layers = (
{
hints = (
{
horizontal = 1;
place = (403, 439);
place = (403, 439);
type = Stem;
},
{
place = (34, 932);
place = (34, 932);
type = Stem;
}
);
layerId = m01;
shapes = (
{
closed = 1;
nodes = (
(34,670,l),
(500,403,l),
(966,670,l),
(948,699,l),
(500,443,l),
(52,699,l)
);
},
{
closed = 1;
nodes = (
(34,813,l),
(500,545,l),
(966,813,l),
(948,842,l),
(500,585,l),
(52,842,l)
);
}
);
vertWidth = 677;
width = 1000;
}
);
note = cid59900;
unicode = 65086;
},
{
glyphname = parenleft.full;
lastChange = "2023-08-28 01:13:10 +0000";
layers = (
{
hints = (
{
horizontal = 1;
place = (-88, 936);
place = (-88, 936);
type = Stem;
},
{
place = (651, 66);
place = (651, 66);
type = Stem;
}
);
layerId = m01;
shapes = (
{
closed = 1;
nodes = (
(200,139,o),
(334,-2,o),
(469,-88,c),
(486,-68,l),
(370,26,o),
(266,170,o),
(266,380,cs),
(266,590,o),
(370,734,o),
(486,828,c),
(469,848,l),
(334,762,o),
(200,621,o),
(200,380,cs)
);
}
);
vertWidth = 1000;
width = 549;
}
);
note = cid59951;
unicode = 65288;
},
{
glyphname = parenright.full;
lastChange = "2023-08-28 01:13:21 +0000";
layers = (
{
hints = (
{
horizontal = 1;
place = (-88, 936);
place = (-88, 936);
type = Stem;
},
{
place = (283, 66);
place = (283, 66);
type = Stem;
}
);
layerId = m01;
shapes = (
{
closed = 1;
nodes = (
(63,828,l),
(179,734,o),
(283,590,o),
(283,380,cs),
(283,170,o),
(179,26,o),
(63,-68,c),
(80,-88,l),
(215,-2,o),
(349,139,o),
(349,380,cs),
(349,621,o),
(215,762,o),
(80,848,c)
);
}
);
vertWidth = 1000;
width = 549;
}
);
note = cid59952;
unicode = 65289;
},
{
glyphname = tortoiseshellbracketleft.vert;
lastChange = "2023-08-28 01:14:52 +0000";
layers = (
{
hints = (
{
horizontal = 1;
place = (131, 36);
place = (131, 36);
type = Stem;
},
{
place = (32, 936);
place = (32, 936);
type = Stem;
}
);
layerId = m01;
shapes = (
{
closed = 1;
nodes = (
(141,680,l),
(32,447,l),
(64,430,l),
(165,644,l),
(835,644,l),
(936,430,l),
(968,447,l),
(859,680,l)
);
}
);
vertWidth = 487;
width = 1000;
}
);
note = cid59895;
unicode = 65081;
},
{
glyphname = tortoiseshellbracketright.vert;
lastChange = "2023-08-28 01:14:58 +0000";
layers = (
{
hints = (
{
horizontal = 1;
place = (593, 36);
place = (593, 36);
type = Stem;
},
{
place = (32, 936);
place = (32, 936);
type = Stem;
}
);
layerId = m01;
shapes = (
{
closed = 1;
nodes = (
(968,826,l),
(936,843,l),
(835,629,l),
(165,629,l),
(64,843,l),
(32,826,l),
(141,593,l),
(859,593,l)
);
}
);
vertWidth = 487;
width = 1000;
}
);
note = cid59896;
unicode = 65082;
},
{
glyphname = whitecornerbracketleft.vert;
lastChange = "2023-08-28 01:15:03 +0000";
layers = (
{
hints = (
{
horizontal = 1;
place = (-83, 28);
place = (-83, 28);
type = Stem;
},
{
horizontal = 1;
place = (119, 28);
place = (119, 28);
type = Stem;
},
{
horizontal = 1;
place = (237, 28);
place = (237, 28);
type = Stem;
},
{
place = (305, 28);
place = (305, 28);
type = Stem;
},
{
place = (813, 28);
place = (813, 28);
type = Stem;
},
{
place = (935, 28);
place = (935, 28);
type = Stem;
}
);
layerId = m01;
shapes = (
{
closed = 1;
nodes = (
(813,332,l),
(963,332,l),
(963,680,l),
(305,680,l),
(305,534,l),
(813,534,l)
);
},
{
closed = 1;
nodes = (
(935,360,l),
(841,360,l),
(841,562,l),
(333,562,l),
(333,652,l),
(935,652,l)
);
}
);
vertWidth = 585;
width = 1000;
}
);
note = cid59905;
unicode = 65091;
},
{
glyphname = whitecornerbracketright.vert;
lastChange = "2023-08-28 01:15:09 +0000";
layers = (
{
hints = (
{
horizontal = 1;
place = (495, 28);
place = (495, 28);
type = Stem;
},
{
horizontal = 1;
place = (613, 28);
place = (613, 28);
type = Stem;
},
{
horizontal = 1;
place = (815, 28);
place = (815, 28);
type = Stem;
},
{
place = (37, 28);
place = (37, 28);
type = Stem;
},
{
place = (159, 28);
place = (159, 28);
type = Stem;
},
{
place = (667, 28);
place = (667, 28);
type = Stem;
}
);
layerId = m01;
shapes = (
{
closed = 1;
nodes = (
(187,843,l),
(37,843,l),
(37,495,l),
(695,495,l),
(695,641,l),
(187,641,l)
);
},
{
closed = 1;
nodes = (
(65,815,l),
(159,815,l),
(159,613,l),
(667,613,l),
(667,523,l),
(65,523,l)
);
}
);
vertWidth = 585;
width = 1000;
}
);
note = cid59906;
unicode = 65092;
},
{
glyphname = whitelenticularbracketleft.vert;
lastChange = "2023-08-28 01:15:14 +0000";
layers = (
{
hints = (
{
horizontal = 1;
place = (177, 28);
place = (177, 28);
type = Stem;
},
{
horizontal = 1;
place = (240, 28);
place = (240, 28);
type = Stem;
},
{
place = (37, 28);
place = (37, 28);
type = Stem;
},
{
place = (935, 28);
place = (935, 28);
type = Stem;
}
);
layerId = m01;
shapes = (
{
closed = 1;
nodes = (
(58,329,l),
(123,480,o),
(280,589,o),
(500,589,cs),
(720,589,o),
(877,480,o),
(942,329,c),
(963,329,l),
(963,680,l),
(37,680,l),
(37,329,l)
);
},
{
closed = 1;
nodes = (
(65,652,l),
(935,652,l),
(935,400,l),
(882,487,o),
(750,617,o),
(500,617,cs),
(250,617,o),
(118,487,o),
(65,400,c)
);
}
);
vertWidth = 588;
width = 1000;
}
);
note = cid59883;
unicode = 65047;
},
{
glyphname = whitelenticularbracketright.vert;
lastChange = "2023-08-28 01:15:20 +0000";
layers = (
{
hints = (
{
horizontal = 1;
place = (500, 28);
place = (500, 28);
type = Stem;
},
{
horizontal = 1;
place = (562, 28);
place = (562, 28);
type = Stem;
},
{
place = (37, 28);
place = (37, 28);
type = Stem;
},
{
place = (935, 28);
place = (935, 28);
type = Stem;
}
);
layerId = m01;
shapes = (
{
closed = 1;
nodes = (
(37,500,l),
(963,500,l),
(963,851,l),
(942,851,l),
(877,700,o),
(720,590,o),
(500,590,cs),
(280,590,o),
(123,700,o),
(58,851,c),
(37,851,l)
);
},
{
closed = 1;
nodes = (
(750,562,o),
(882,693,o),
(935,780,c),
(935,528,l),
(65,528,l),
(65,780,l),
(118,693,o),
(250,562,o),
(500,562,cs)
);
}
);
vertWidth = 580;
width = 1000;
}
);
note = cid59884;
unicode = 65048;
},
{
glyphname = braceleft.full.vert;
lastChange = "2023-08-28 01:15:26 +0000";
layers = (
{
hints = (
{
horizontal = 1;
place = (62, 69);
place = (62, 69);
type = Stem;
},
{
place = (12, 42.5);
place = (12, 42.5);
type = Stem;
},
{
place = (946, 42);
place = (946, 42);
type = Stem;
},
{
horizontal = 1;
place = (43, 52);
place = (43, 52);
type = Stem;
}
);
layerId = m01;
shapes = (
{
closed = 1;
nodes = (
(481,680,l),
(465,564,o),
(432,529,o),
(379,529,cs),
(322,529,o),
(238,565,o),
(153,565,cs),
(62,565,o),
(12,499,o),
(12,359,cs),
(12,314,l),
(53,314,l),
(56,360,ls),
(62,464,o),
(93,496,o),
(162,496,cs),
(239,496,o),
(306,477,o),
(367,477,cs),
(427,477,o),
(481,510,o),
(500,598,c),
(519,510,o),
(572,477,o),
(633,477,cs),
(694,477,o),
(760,496,o),
(839,496,cs),
(907,496,o),
(939,464,o),
(945,360,cs),
(947,314,l),
(988,314,l),
(988,359,ls),
(988,499,o),
(938,565,o),
(847,565,cs),
(762,565,o),
(679,529,o),
(622,529,cs),
(568,529,o),
(535,564,o),
(519,680,c)
);
}
);
vertWidth = 566;
width = 1000;
}
);
note = cid59893;
unicode = 65079;
},
{
glyphname = braceright.full.vert;
lastChange = "2023-08-28 01:15:31 +0000";
layers = (
{
hints = (
{
horizontal = 1;
place = (627, 69);
place = (627, 69);
type = Stem;
},
{
place = (12, 42.5);
place = (12, 42.5);
type = Stem;
},
{
place = (946, 42);
place = (946, 42);
type = Stem;
},
{
horizontal = 1;
place = (663, 52);
place = (663, 52);
type = Stem;
}
);
layerId = m01;
shapes = (
{
closed = 1;
nodes = (
(947,878,l),
(945,832,ls),
(939,728,o),
(907,696,o),
(839,696,cs),
(760,696,o),
(694,715,o),
(633,715,cs),
(572,715,o),
(520,682,o),
(500,594,c),
(481,682,o),
(428,715,o),
(367,715,cs),
(306,715,o),
(239,696,o),
(162,696,cs),
(93,696,o),
(62,728,o),
(56,832,cs),
(53,878,l),
(12,878,l),
(12,833,ls),
(12,694,o),
(62,627,o),
(153,627,cs),
(238,627,o),
(322,663,o),
(379,663,cs),
(432,663,o),
(465,628,o),
(481,512,c),
(519,512,l),
(535,628,o),
(568,663,o),
(622,663,cs),
(679,663,o),
(762,627,o),
(847,627,cs),
(938,627,o),
(988,694,o),
(988,833,cs),
(988,878,l)
);
}
);
vertWidth = 568;
width = 1000;
}
);
note = cid59894;
unicode = 65080;
},
{
glyphname = bracketleft.full.vert;
lastChange = "2023-08-28 01:15:37 +0000";
layers = (
{
hints = (
{
horizontal = 1;
place = (131, 36);
place = (131, 36);
type = Stem;
},
{
place = (37, 37);
place = (37, 37);
type = Stem;
},
{
place = (926, 37);
place = (926, 37);
type = Stem;
}
);
layerId = m01;
shapes = (
{
closed = 1;
nodes = (
(37,680,l),
(37,430,l),
(74,430,l),
(74,644,l),
(926,644,l),
(926,430,l),
(963,430,l),
(963,680,l)
);
}
);
vertWidth = 487;
width = 1000;
}
);
note = cid59909;
unicode = 65095;
},
{
glyphname = bracketright.full.vert;
lastChange = "2023-08-28 01:15:43 +0000";
layers = (
{
hints = (
{
horizontal = 1;
place = (593, 36);
place = (593, 36);
type = Stem;
},
{
place = (37, 37);
place = (37, 37);
type = Stem;
},
{
place = (926, 37);
place = (926, 37);
type = Stem;
}
);
layerId = m01;
shapes = (
{
closed = 1;
nodes = (
(963,593,l),
(963,843,l),
(926,843,l),
(926,629,l),
(74,629,l),
(74,843,l),
(37,843,l),
(37,593,l)
);
}
);
vertWidth = 487;
width = 1000;
}
);
note = cid59910;
unicode = 65096;
},
{
glyphname = parenleft.full.vert;
lastChange = "2023-08-28 01:15:48 +0000";
layers = (
{
hints = (
{
horizontal = 1;
place = (164, 66);
place = (164, 66);
type = Stem;
},
{
place = (32, 936);
place = (32, 936);
type = Stem;
}
);
layerId = m01;
shapes = (
{
closed = 1;
nodes = (
(259,680,o),
(118,546,o),
(32,411,c),
(52,394,l),
(146,510,o),
(290,614,o),
(500,614,cs),
(710,614,o),
(854,510,o),
(948,394,c),
(968,411,l),
(882,546,o),
(741,680,o),
(500,680,cs)
);
}
);
vertWidth = 550;
width = 1000;
}
);
note = cid59891;
unicode = 65077;
},
